# xmcd
#
# Track frame offsets:
#	150
#	20040
#	38800
#	54775
#	73492
#	89702
#	105817
#	127650
#	143810
#	163292
#	177382
#	193122
#	206867
#	218950
#	231915
#
# Disc length: 3268 seconds
#
# Revision: 3
# Processed by: cddbd v1.5.2PL0 Copyright (c) Steve Scherf et al.
# Submitted via: audiograbber 1.83.01
#
DISCID=e00cc20f
DTITLE=Sound Choice - SC8211
DYEAR=1900
DGENRE=Karaoke Country
TTITLE0=Reba Mcentire - Ring On Her Finger, Time On Her Hands
TTITLE1=Shenandoah - Always Have, Always Will
TTITLE2=Wade Hayes - What I Meant To Say
TTITLE3=Bryan White - Rebecca Lynn
TTITLE4=Ty England - Smoke In Her Eyes
TTITLE5=Tim Mcgraw - Can't Be Really Gone
TTITLE6=Trisha Yearwood - On A Bus To St. Cloud
TTITLE7=Blackhawk - Like There Ain't No Yesterday
TTITLE8=Holly Dunn - It's Not About Blame
TTITLE9=Mark Collie - Steady As She Goes
TTITLE10=Faith Hill - It Matters To Me
TTITLE11=Hal Ketchum - Veil Of Tears
TTITLE12=Alan Jackson - Tall Tall Trees
TTITLE13=Mary Chapin Carpenter - Why Walk When You Can Fly
TTITLE14=Chris Ledoux - Dallas Days And Fort Worth Nights
EXTD=
EXTT0=
EXTT1=
EXTT2=
EXTT3=
EXTT4=
EXTT5=
EXTT6=
EXTT7=
EXTT8=
EXTT9=
EXTT10=
EXTT11=
EXTT12=
EXTT13=
EXTT14=
PLAYORDER=
